<svg class="icon-social--instagram" viewBox="0 0 120 120" enable-background="new 0 0 120 120" xmlns="http://www.w3.org/2000/svg"><path id="Instagram_10_" fill="#000000" d="M95.1,103.9H24.9c-0.2,0-0.4-0.1-0.6-0.1c-3.9-0.5-7.1-3.4-8-7.2 c-0.1-0.4-0.2-0.9-0.2-1.3V24.8c0-0.2,0.1-0.3,0.1-0.5c0.6-3.9,3.4-7.1,7.3-8c0.4-0.1,0.8-0.2,1.3-0.2h70.4c0.2,0,0.3,0.1,0.5,0.1 c4,0.5,7.2,3.6,8,7.5c0.1,0.4,0.1,0.8,0.2,1.2v70.2c-0.1,0.4-0.1,0.8-0.2,1.2c-0.7,3.6-3.6,6.6-7.2,7.4 C96,103.7,95.5,103.8,95.1,103.9z M25.6,51.7v0.2c0,13,0,26,0,38.9c0,1.9,1.6,3.5,3.5,3.5c20.6,0,41.2,0,61.8,0 c1.9,0,3.5-1.6,3.5-3.5c0-13,0-25.9,0-38.9v-0.3H86c1.2,3.8,1.5,7.6,1.1,11.5c-0.5,3.9-1.7,7.6-3.8,10.9c-2.1,3.4-4.7,6.2-8,8.4 c-8.5,5.8-19.6,6.3-28.6,1.2c-4.5-2.5-8.1-6.1-10.6-10.7c-3.7-6.8-4.3-14-2.1-21.4C31.2,51.7,28.4,51.7,25.6,51.7L25.6,51.7z M60,42.2c-9.7,0-17.6,7.8-17.8,17.5c-0.1,9.9,7.8,17.8,17.4,18c9.9,0.2,18-7.7,18.2-17.4C78,50.4,70,42.2,60,42.2L60,42.2z M86.7,38.7L86.7,38.7c1.4,0,2.9,0,4.3,0c1.9,0,3.4-1.6,3.4-3.5c0-2.8,0-5.5,0-8.3c0-2-1.6-3.6-3.6-3.6c-2.8,0-5.5,0-8.3,0 c-2,0-3.6,1.6-3.6,3.6c0,2.7,0,5.5,0,8.2c0,0.4,0.1,0.8,0.2,1.2c0.5,1.5,1.8,2.4,3.5,2.4C84,38.7,85.3,38.7,86.7,38.7L86.7,38.7z"></path></svg>
